<?xml version="1.0" encoding="UTF-8" standalone="no"?>
<svg
   xmlns:dc="http://purl.org/dc/elements/1.1/"
   xmlns:cc="http://creativecommons.org/ns#"
   xmlns:rdf="http://www.w3.org/1999/02/22-rdf-syntax-ns#"
   xmlns:svg="http://www.w3.org/2000/svg"
   xmlns="http://www.w3.org/2000/svg"
   xmlns:sodipodi="http://sodipodi.sourceforge.net/DTD/sodipodi-0.dtd"
   xmlns:inkscape="http://www.inkscape.org/namespaces/inkscape"
   id="svg3542"
   version="1.1"
   inkscape:version="0.91 r13725"
   sodipodi:docname="drawing.svg"
   width="512"
   height="512">
  <metadata
     id="metadata3552">
    <rdf:RDF>
      <cc:Work
         rdf:about="">
        <dc:format>image/svg+xml</dc:format>
        <dc:type
           rdf:resource="http://purl.org/dc/dcmitype/StillImage" />
        <dc:title></dc:title>
      </cc:Work>
    </rdf:RDF>
  </metadata>
  <defs
     id="defs3550" />
  <sodipodi:namedview
     pagecolor="#ffffff"
     bordercolor="#666666"
     borderopacity="1"
     objecttolerance="10"
     gridtolerance="10"
     guidetolerance="10"
     inkscape:pageopacity="0"
     inkscape:pageshadow="2"
     inkscape:window-width="2560"
     inkscape:window-height="1377"
     id="namedview3548"
     showgrid="false"
     inkscape:zoom="0.98994949"
     inkscape:cx="479.19093"
     inkscape:cy="451.04535"
     inkscape:window-x="-8"
     inkscape:window-y="-8"
     inkscape:window-maximized="1"
     inkscape:current-layer="svg3542"
     units="px" />
  <g
     id="g3544"
     transform="translate(-60.510514,3.4895274)">
    <path
       d="m 355.84382,102.51775 c 0.79273,0.19707 1.53177,0.61193 2.35351,1.27734 0.58212,0.47137 0.95433,0.79683 1.25782,1.35352 0.30348,0.55669 0.54724,1.38881 0.74414,2.84765 0.3938,2.9177 0.5959,8.28122 0.96093,18.75977 0.40935,11.75045 1.22692,47.02859 1.81446,78.37694 0.2938,15.67614 0.62888,30.74365 0.93359,42.39063 0.30472,11.64701 0.57367,19.82911 0.74805,21.89261 0.30262,3.5812 0.42132,5.3791 0.94922,6.4843 0.26395,0.5527 0.70916,0.9262 1.22656,1.0782 0.5174,0.152 1.07876,0.1445 1.78516,0.1445 1.22038,0 2.33166,-0.3554 3.54492,-1.2852 1.21325,-0.9297 2.56754,-2.4136 4.47461,-4.746 5.8063,-7.1014 9.35741,-9.6218 14.46875,-10.3711 5.78713,-0.8485 22.34727,-2.0667 42.52148,-3.2286 20.17421,-1.1618 43.99543,-2.2742 64.42188,-2.9296 11.56925,-0.37131 18.57467,-0.39119 23.21093,0.2168 4.63626,0.6079 6.86574,1.7941 9.13086,3.9355 1.83521,1.735 2.84399,3.4374 3.14063,5.3496 0.29664,1.9122 -0.12489,4.0776 -1.29492,6.7227 -0.93894,2.1226 -1.7823,3.6895 -3.11328,4.8984 -1.33099,1.2089 -3.18307,2.0991 -6.22461,2.7871 -6.0831,1.376 -16.8356,1.8892 -36.99805,2.5977 -32.18901,1.1311 -53.67445,1.9517 -67.31641,2.5957 -6.82098,0.3219 -11.6802,0.6002 -14.9414,0.8515 -1.63061,0.1257 -2.86067,0.2436 -3.74414,0.3594 -0.88348,0.1158 -1.36224,0.1773 -1.75,0.3848 -0.69489,0.3719 -1.48494,1.1268 -2.4961,2.2793 -1.01116,1.1524 -2.2191,2.7013 -3.61719,4.6367 -2.79617,3.8708 -6.35575,9.2878 -10.58984,16.123 -12.72599,20.544 -19.47205,30.7465 -22.30273,33.8457 -1.23623,1.3535 -2.04943,2.0674 -3.07227,2.4688 -1.02283,0.4013 -2.33412,0.5078 -4.55859,0.5078 -2.13199,0 -3.47284,-0.1183 -4.53711,-0.4961 -1.06427,-0.3778 -1.90617,-1.0194 -3.06836,-2.1816 -0.95659,-0.9566 -1.60659,-1.6872 -2.15235,-3.3594 -0.54575,-1.6722 -0.95337,-4.2973 -1.26367,-8.875 -0.62059,-9.1555 -0.86681,-26.1101 -1.29492,-59.0938 -0.19991,-15.4017 -0.46659,-29.5383 -0.73437,-39.91012 -0.1339,-5.18591 -0.26775,-9.43082 -0.39454,-12.42383 -0.0634,-1.4965 -0.12453,-2.67927 -0.18359,-3.51562 -0.0295,-0.41818 -0.0586,-0.74926 -0.0879,-0.9961 -0.0147,-0.12341 -0.0296,-0.22531 -0.0469,-0.31445 -0.0172,-0.0891 -8.5e-4,-0.13448 -0.10547,-0.30273 -0.35828,-0.57616 -0.87759,-0.96182 -1.46875,-1.04102 -0.59117,-0.0792 -1.1905,0.12801 -1.76563,0.51172 -1.15025,0.76742 -2.30071,2.27171 -3.38867,4.4043 -0.58919,1.15489 -1.52291,3.76386 -2.61719,7.14843 -1.09428,3.38458 -2.32834,7.51089 -3.4414,11.57227 -5.32623,19.43445 -10.9205,39.00105 -16.93555,59.23245 -2.70048,9.0829 -10.08021,34.7295 -16.40234,57.0058 -8.32279,29.3257 -13.11149,45.7712 -16.50977,55.4473 -3.39828,9.6761 -5.35488,12.5079 -8.09375,14.8125 -3.83026,3.223 -10.10186,3.2509 -12.96875,0.1992 -1.67693,-1.785 -2.86783,-4.9247 -4.22266,-15.2012 -1.35483,-10.2764 -2.87065,-27.6125 -5.28906,-57.6621 -2.52069,-31.3204 -4.8271,-58.8798 -6.61719,-79.2324 -0.89504,-10.1763 -1.66083,-18.54932 -2.25976,-24.69335 -0.59893,-6.14402 -1.02215,-10.02063 -1.26172,-11.33789 -0.17027,-0.9362 -0.50011,-1.91509 -0.90039,-2.76562 -0.40028,-0.85053 -0.85068,-1.5678 -1.38086,-2.00782 -0.34662,-0.28767 -0.68317,-0.5126 -1.07617,-0.61523 -0.39301,-0.10263 -0.82561,-0.0485 -1.22071,0.14258 -0.79019,0.38217 -1.54615,1.21029 -2.73047,2.62891 -4.28102,5.12798 -9.69294,19.1077 -22.95507,58.61132 -6.29534,18.7518 -9.79372,29.0015 -12.08594,34.7383 -1.14611,2.8684 -1.992,4.6075 -2.71289,5.6973 -0.72089,1.0897 -1.28416,1.5282 -1.99414,1.9082 -1.35793,0.7267 -2.52564,0.7714 -3.71875,0.1543 -1.19311,-0.6172 -2.42086,-1.9732 -3.6211,-4.1407 -2.40046,-4.3349 -4.68079,-11.85 -6.90039,-22.7011 -2.37871,-11.6291 -4.91711,-18.2895 -9.76172,-25.586 -1.07991,-1.6264 -1.82379,-2.8556 -2.77343,-3.8183 -0.94965,-0.9628 -2.10768,-1.6194 -3.86133,-2.0508 -3.5073,-0.8629 -9.47506,-0.9523 -22.04296,-1.3106 -11.91611,-0.3397 -18.33036,-0.8118 -20.94336,-2.2187 -1.3065,-0.7035 -1.70091,-1.4861 -1.61914,-2.8203 0.0818,-1.3342 0.77651,-3.2 1.87891,-5.6289 1.49175,-3.2869 2.72741,-4.4999 6.12304,-6.002 2.4102,-1.0661 7.86901,-2.0684 14.89454,-2.76562 7.02551,-0.69724 15.65704,-1.11668 24.59178,-1.1289 l 11.20313,-0.0156 4.64062,12.96482 c 2.70249,7.5513 4.18542,11.6003 5.22852,13.709 0.52155,1.0543 0.91225,1.6539 1.45508,1.9629 0.27141,0.1545 0.5912,0.2 0.86718,0.1484 0.27598,-0.052 0.50683,-0.1735 0.72852,-0.3105 0.44896,-0.2775 0.82846,-0.7739 1.33008,-1.5176 0.50162,-0.7437 1.08434,-1.7292 1.74023,-2.9375 1.31179,-2.4166 2.91695,-5.7177 4.70899,-9.6601 3.58407,-7.8848 7.91254,-18.33587 12.08007,-29.36919 12.10548,-32.04863 19.51622,-51.26274 24.38868,-62.70312 2.43622,-5.72019 4.23935,-9.49792 5.66406,-11.94922 1.42471,-2.4513 2.47104,-3.55018 3.31445,-3.98633 1.50893,-0.78029 4.10115,-1.32923 6.4336,-1.48242 1.16622,-0.0766 2.27329,-0.0582 3.14453,0.0586 0.87123,0.11683 1.49854,0.3776 1.66992,0.55274 -0.0642,-0.0656 0.0252,0.0434 0.0918,0.2168 0.0666,0.17338 0.14746,0.42504 0.23438,0.73437 0.17385,0.61867 0.37615,1.47471 0.58984,2.49805 0.42738,2.04667 0.90263,4.76224 1.32032,7.64062 1.58914,10.95117 9.15665,82.34608 12.60546,118.9746 1.67517,17.7913 2.62693,27.2846 3.63868,32.3945 0.50587,2.555 1.01162,4.0283 1.72656,4.9356 0.71494,0.9073 1.67802,1.123 2.65625,1.123 0.58659,0 1.21992,0.013 1.87695,-0.3378 0.65703,-0.3513 1.271,-1.0184 1.97656,-2.2344 1.41113,-2.4321 3.25411,-7.1618 6.38477,-16.6758 6.26133,-19.028 17.6236,-57.1486 40.42188,-133.60743 9.33859,-31.31896 14.84044,-48.85707 19.20898,-58.74609 2.18427,-4.9445 4.08335,-7.96579 5.99805,-9.84765 1.9147,-1.88187 3.84169,-2.66025 6.24804,-3.13086 1.03824,-0.20305 1.88501,-0.22246 2.67774,-0.0254 z"
       id="path3546"
       inkscape:connector-curvature="0"
       style="fill:#e3e5bb" />
  </g>
</svg>
