<?xml version="1.0" standalone="no"?>
<!DOCTYPE svg PUBLIC "-//W3C//DTD SVG 20010904//EN"
 "http://www.w3.org/TR/2001/REC-SVG-20010904/DTD/svg10.dtd">
<svg version="1.0" xmlns="http://www.w3.org/2000/svg"
 width="512.000000pt" height="512.000000pt" viewBox="0 0 512.000000 512.000000"
 preserveAspectRatio="xMidYMid meet">
<metadata>
Created by potrace 1.11, written by Peter Selinger 2001-2013
</metadata>
<g transform="translate(0.000000,512.000000) scale(0.100000,-0.100000)"
fill="#000000" stroke="none">
<path d="M0 2560 l0 -2560 2560 0 2560 0 0 2560 0 2560 -2560 0 -2560 0 0
-2560z m3169 1451 c23 -23 28 -112 41 -801 15 -791 20 -921 37 -927 24 -9 51
10 100 72 27 33 64 67 83 77 37 18 164 31 445 48 596 35 917 39 972 13 42 -20
73 -66 73 -109 0 -35 -32 -88 -70 -116 -37 -27 -146 -36 -695 -53 -617 -20
-586 -16 -634 -73 -21 -24 -67 -91 -102 -149 -109 -178 -235 -367 -257 -386
-30 -27 -92 -33 -131 -12 -64 33 -64 26 -72 685 -4 327 -10 603 -14 613 -24
57 -62 -28 -139 -309 -36 -133 -89 -317 -117 -410 -28 -93 -99 -342 -159 -554
-129 -459 -193 -666 -226 -737 -40 -84 -111 -121 -172 -89 -17 9 -36 25 -42
35 -18 35 -39 193 -60 461 -69 880 -114 1394 -126 1433 -3 9 -14 17 -24 17
-41 0 -100 -140 -250 -595 -140 -422 -156 -456 -215 -441 -47 12 -83 99 -125
300 -21 104 -63 201 -109 257 l-28 33 -209 6 c-246 7 -259 11 -251 73 6 47 32
85 73 109 36 21 150 35 360 43 l160 7 53 -146 c30 -80 59 -146 65 -146 21 0
122 226 236 530 109 287 191 496 243 612 30 66 71 98 129 98 52 0 63 -22 82
-165 17 -127 91 -839 127 -1214 24 -253 36 -314 61 -319 26 -5 52 46 97 188
41 126 324 1067 451 1495 141 476 187 565 288 565 18 0 40 -8 51 -19z"/>
</g>
</svg>
